<svg width="59" height="69" viewBox="0 0 59 69" fill="none" xmlns="http://www.w3.org/2000/svg">
<path d="M16 18V4C16 3.44772 16.4477 3 17 3H43C43.5523 3 44 3.44772 44 4V18C44 18.5523 43.5523 19 43 19H17C16.4477 19 16 18.5523 16 18Z" stroke="black" stroke-width="5" stroke-linecap="round"/>
<path d="M8 8L3.3753 11.6998C3.13809 11.8895 3 12.1768 3 12.4806V65C3 65.5523 3.44772 66 4 66H55.5C56.0523 66 56.5 65.5523 56.5 65V12.4491C56.5 12.1634 56.3779 11.8914 56.1644 11.7017L52 8" stroke="black" stroke-width="5" stroke-linecap="round"/>
</svg>
