<svg xmlns="http://www.w3.org/2000/svg" fill="none" viewBox="0 0 169 150"><path fill="#fff" d="M16 29h118v93H16z"/><path fill="#FE140A" fill-rule="evenodd" d="M4.286 4.286C.184 8.387 0 11.428 0 75c0 63.572.184 66.613 4.286 70.714C8.387 149.816 11.428 150 75 150c63.572 0 66.613-.184 70.714-4.286C149.816 141.613 150 138.572 150 75c0-63.572-.184-66.613-4.286-70.714C141.613.184 138.572 0 75 0 11.428 0 8.387.184 4.286 4.286zm93.923 42.006c12.283 6.122 17.52 13.564 17.482 24.85l-.024 7.072-5.451-6.917c-6.512-8.263-21.703-13.446-39.356-13.427-14.62.013-28.581 3.626-27.405 7.089.606 1.787 6.604 2.314 20.192 1.774 28.335-1.125 43.496 6.416 43.496 21.634 0 7.305-12.133 18.054-23.92 21.191-11.538 3.071-26.76-.116-29.052-6.084-3.46-9.017 18.791-15.092 29.025-7.924 6.847 4.796 2.469 9.45-8.886 9.45-6.22 0-8.076.662-6.44 2.299 2.973 2.972 17.669-.805 24.427-6.278 5.874-4.757 4.45-10.192-3.452-13.196-3.054-1.161-15.133-2.11-26.841-2.11-18.341 0-21.875-.586-25.522-4.233-10.71-10.71-6.718-27.82 8.349-35.79 13.896-7.348 37.971-7.078 53.378.6z" clip-rule="evenodd"/><rect width="72" height="25.331" x="97" y="114.897" fill="#000" rx="8"/><path fill="#fff" d="M114.128 136v-17.773h6.226c2.156 0 3.792.415 4.907 1.245 1.115.822 1.672 2.03 1.672 3.625 0 .871-.224 1.64-.671 2.307-.448.659-1.07 1.144-1.868 1.453.912.228 1.628.688 2.148 1.379.529.692.794 1.538.794 2.539 0 1.709-.545 3.003-1.636 3.882-1.09.879-2.645 1.327-4.663 1.343h-6.909zm3.662-7.739v4.797h3.137c.863 0 1.534-.203 2.014-.61.489-.415.733-.985.733-1.709 0-1.628-.842-2.454-2.527-2.478h-3.357zm0-2.588h2.71c1.847-.033 2.771-.769 2.771-2.21 0-.805-.236-1.383-.708-1.733-.464-.358-1.2-.537-2.209-.537h-2.564v4.48zM133.989 136h-3.662v-17.773h3.662V136zm17.859 0h-3.662l-7.129-11.694V136h-3.662v-17.773h3.662l7.141 11.718v-11.718h3.65V136z"/></svg>