<svg width="60" height="100" viewBox="0 0 60 100" fill="none" xmlns="http://www.w3.org/2000/svg"><path d="M51 97.0009H39C37.8954 97.0009 37 96.1054 37 95.0009V79.0009C37 77.8963 37.8954 77.0009 39 77.0009H46C46.009 76.9997 46.018 76.9997 46.027 77.0009H46.033C46.0424 77.0038 46.0522 77.0058 46.062 77.0069C46.1502 77.0125 46.2373 77.0297 46.321 77.0579H46.336H46.351H46.363C46.3815 77.0708 46.3988 77.0852 46.415 77.1009C46.5239 77.1493 46.6232 77.2171 46.708 77.3009L52.708 83.3009C52.7918 83.3857 52.8596 83.4849 52.908 83.5939C52.917 83.6159 52.924 83.6369 52.931 83.6599L52.941 83.6879C52.9689 83.7713 52.9854 83.8581 52.99 83.9459C52.9909 83.9558 52.9932 83.9656 52.997 83.9749V83.9809C52.9986 83.9874 52.9996 83.9941 53 84.0009V95.0009C53 95.5313 52.7893 96.04 52.4142 96.4151C52.0391 96.7902 51.5304 97.0009 51 97.0009ZM46 79.0009V84.0009H51L46 79.0009Z" fill="black"/><path d="M44.5008 89.9992L41.9008 89.9776C41.8453 89.9772 41.8 90.0221 41.8 90.0776L41.8 93.9C41.8 93.9552 41.8448 94 41.9 94H44.5C44.5552 94 44.6 93.9552 44.6 93.9V93.3C44.6 93.2448 44.5552 93.2 44.5 93.2H42.7C42.6447 93.2 42.6 93.1552 42.6 93.1V92.6C42.6 92.5448 42.6447 92.5 42.7 92.5H44.5C44.5552 92.5 44.6 92.4552 44.6 92.4V91.6C44.6 91.5448 44.5552 91.5 44.5 91.5H42.7C42.6447 91.5 42.6 91.4552 42.6 91.4V90.8422C42.6 90.7869 42.6447 90.7422 42.7 90.7422H44.5C44.5552 90.7422 44.6 90.6974 44.6 90.6422V90.0992C44.6 90.0443 44.5557 89.9996 44.5008 89.9992Z" fill="white"/><path d="M39.1 93.9V90.8C39.1 90.7448 39.0552 90.7 39 90.7H38.1C38.0448 90.7 38 90.6552 38 90.6V90.1C38 90.0448 38.0448 90 38.1 90L40.9 90C40.9552 90 41 90.0448 41 90.1V90.602C41 90.6565 40.9565 90.7009 40.9021 90.702L39.9979 90.7206C39.9435 90.7218 39.9 90.7662 39.9 90.8206V93.9C39.9 93.9552 39.8552 94 39.8 94H39.2C39.1448 94 39.1 93.9552 39.1 93.9Z" fill="white"/><path d="M50.1 93.9V90.8C50.1 90.7448 50.0552 90.7 50 90.7H49.1C49.0448 90.7 49 90.6552 49 90.6V90.1C49 90.0448 49.0448 90 49.1 90L51.9 90C51.9552 90 52 90.0448 52 90.1V90.602C52 90.6565 51.9565 90.7009 51.9021 90.702L50.9979 90.7206C50.9435 90.7218 50.9 90.7662 50.9 90.8206V93.9C50.9 93.9552 50.8552 94 50.8 94H50.2C50.1448 94 50.1 93.9552 50.1 93.9Z" fill="white"/><path d="M46.3382 94H45.5618C45.4875 94 45.4391 93.9218 45.4724 93.8553L46.3777 92.0447C46.3917 92.0166 46.3917 91.9834 46.3777 91.9553L45.4724 90.1447C45.4391 90.0782 45.4875 90 45.5618 90H46.3382C46.3761 90 46.4107 90.0214 46.4277 90.0553L46.8106 90.8211C46.8474 90.8948 46.9526 90.8948 46.9895 90.8211L47.3724 90.0553C47.3893 90.0214 47.424 90 47.4618 90H48.2454C48.3179 90 48.3663 90.0749 48.3366 90.141L47.5185 91.959C47.5067 91.9851 47.5067 92.0149 47.5185 92.041L48.3366 93.859C48.3663 93.9251 48.3179 94 48.2454 94H47.4618C47.424 94 47.3893 93.9786 47.3724 93.9447L46.9895 93.1789C46.9526 93.1052 46.8474 93.1052 46.8106 93.1789L46.4277 93.9447C46.4107 93.9786 46.3761 94 46.3382 94Z" fill="white"/><path d="M21 97.0009H9C7.89543 97.0009 7 96.1054 7 95.0009V79.0009C7 77.8963 7.89543 77.0009 9 77.0009H16C16.009 76.9997 16.018 76.9997 16.027 77.0009H16.033C16.0424 77.0038 16.0522 77.0058 16.062 77.0069C16.1502 77.0125 16.2373 77.0297 16.321 77.0579H16.336H16.351H16.363C16.3815 77.0708 16.3988 77.0852 16.415 77.1009C16.5239 77.1493 16.6232 77.2171 16.708 77.3009L22.708 83.3009C22.7918 83.3857 22.8596 83.4849 22.908 83.5939C22.917 83.6159 22.924 83.6369 22.931 83.6599L22.941 83.6879C22.9689 83.7713 22.9854 83.8581 22.99 83.9459C22.9909 83.9558 22.9932 83.9656 22.997 83.9749V83.9809C22.9986 83.9874 22.9996 83.9941 23 84.0009V95.0009C23 95.5313 22.7893 96.04 22.4142 96.4151C22.0391 96.7902 21.5304 97.0009 21 97.0009ZM16 79.0009V84.0009H21L16 79.0009Z" fill="#7E7E7E"/><path d="M14.5008 89.9992L11.9008 89.9776C11.8453 89.9772 11.8 90.0221 11.8 90.0776L11.8 93.9C11.8 93.9552 11.8448 94 11.9 94H14.5C14.5552 94 14.6 93.9552 14.6 93.9V93.3C14.6 93.2448 14.5552 93.2 14.5 93.2H12.7C12.6447 93.2 12.6 93.1552 12.6 93.1V92.6C12.6 92.5448 12.6447 92.5 12.7 92.5H14.5C14.5552 92.5 14.6 92.4552 14.6 92.4V91.6C14.6 91.5448 14.5552 91.5 14.5 91.5H12.7C12.6447 91.5 12.6 91.4552 12.6 91.4V90.8422C12.6 90.7869 12.6447 90.7422 12.7 90.7422H14.5C14.5552 90.7422 14.6 90.6974 14.6 90.6422V90.0992C14.6 90.0443 14.5557 89.9996 14.5008 89.9992Z" fill="white" fill-opacity="0.5"/><path d="M9.1 93.9V90.8C9.1 90.7448 9.05523 90.7 9 90.7H8.1C8.04477 90.7 8 90.6552 8 90.6V90.1C8 90.0448 8.04477 90 8.1 90L10.9 90C10.9552 90 11 90.0448 11 90.1V90.602C11 90.6565 10.9565 90.7009 10.9021 90.702L9.99794 90.7206C9.94353 90.7218 9.9 90.7662 9.9 90.8206V93.9C9.9 93.9552 9.85523 94 9.8 94H9.2C9.14477 94 9.1 93.9552 9.1 93.9Z" fill="white" fill-opacity="0.5"/><path d="M20.1 93.9V90.8C20.1 90.7448 20.0552 90.7 20 90.7H19.1C19.0448 90.7 19 90.6552 19 90.6V90.1C19 90.0448 19.0448 90 19.1 90L21.9 90C21.9552 90 22 90.0448 22 90.1V90.602C22 90.6565 21.9565 90.7009 21.9021 90.702L20.9979 90.7206C20.9435 90.7218 20.9 90.7662 20.9 90.8206V93.9C20.9 93.9552 20.8552 94 20.8 94H20.2C20.1448 94 20.1 93.9552 20.1 93.9Z" fill="white" fill-opacity="0.5"/><path d="M16.3382 94H15.5618C15.4875 94 15.4391 93.9218 15.4724 93.8553L16.3777 92.0447C16.3917 92.0166 16.3917 91.9834 16.3777 91.9553L15.4724 90.1447C15.4391 90.0782 15.4875 90 15.5618 90H16.3382C16.3761 90 16.4107 90.0214 16.4277 90.0553L16.8106 90.8211C16.8474 90.8948 16.9526 90.8948 16.9895 90.8211L17.3724 90.0553C17.3893 90.0214 17.424 90 17.4618 90H18.2454C18.3179 90 18.3663 90.0749 18.3366 90.141L17.5185 91.959C17.5067 91.9851 17.5067 92.0149 17.5185 92.041L18.3366 93.859C18.3663 93.9251 18.3179 94 18.2454 94H17.4618C17.424 94 17.3893 93.9786 17.3724 93.9447L16.9895 93.1789C16.9526 93.1052 16.8474 93.1052 16.8106 93.1789L16.4277 93.9447C16.4107 93.9786 16.3761 94 16.3382 94Z" fill="white" fill-opacity="0.5"/><path d="M47.0012 72.0012H37.0012C36.4652 72.0198 35.9456 71.8151 35.5665 71.4359C35.1873 71.0567 34.9825 70.5371 35.0012 70.0012V60.0012C34.9825 59.4652 35.1873 58.9456 35.5665 58.5665C35.9456 58.1873 36.4652 57.9825 37.0012 58.0012H41.0012V54.0012C40.9825 53.4652 41.1873 52.9456 41.5665 52.5665C41.9456 52.1873 42.4652 51.9825 43.0012 52.0012H53.0012C53.5371 51.9825 54.0567 52.1873 54.4359 52.5665C54.8151 52.9456 55.0198 53.4652 55.0012 54.0012V64.0012C55.0195 64.537 54.8147 65.0564 54.4355 65.4356C54.0564 65.8147 53.537 66.0195 53.0012 66.0012H49.0012V70.0012C49.0195 70.537 48.8147 71.0564 48.4356 71.4355C48.0564 71.8147 47.537 72.0195 47.0012 72.0012ZM37.0012 60.0012V70.0012H47.0012V66.0012H43.0012C42.4653 66.0195 41.9459 65.8147 41.5668 65.4356C41.1877 65.0564 40.9828 64.537 41.0012 64.0012V60.0012H37.0012ZM43.0012 54.0012V64.0012H53.0012V54.0012H43.0012Z" fill="black"/><path d="M17.0012 72.0012H7.00117C6.46524 72.0198 5.94564 71.8151 5.56646 71.4359C5.18727 71.0567 4.98254 70.5371 5.00117 70.0012V60.0012C4.98254 59.4652 5.18727 58.9456 5.56646 58.5665C5.94564 58.1873 6.46524 57.9825 7.00117 58.0012H11.0012V54.0012C10.9825 53.4652 11.1873 52.9456 11.5665 52.5665C11.9456 52.1873 12.4652 51.9825 13.0012 52.0012H23.0012C23.5371 51.9825 24.0567 52.1873 24.4359 52.5665C24.8151 52.9456 25.0198 53.4652 25.0012 54.0012V64.0012C25.0195 64.537 24.8147 65.0564 24.4355 65.4356C24.0564 65.8147 23.537 66.0195 23.0012 66.0012H19.0012V70.0012C19.0195 70.537 18.8147 71.0564 18.4356 71.4355C18.0564 71.8147 17.537 72.0195 17.0012 72.0012ZM7.00117 60.0012V70.0012H17.0012V66.0012H13.0012C12.4653 66.0195 11.9459 65.8147 11.5668 65.4356C11.1877 65.0564 10.9828 64.537 11.0012 64.0012V60.0012H7.00117ZM13.0012 54.0012V64.0012H23.0012V54.0012H13.0012Z" fill="#7E7E7E"/><path d="M51 47.0009H39C37.8954 47.0009 37 46.1054 37 45.0009V29.0009C37 27.8963 37.8954 27.0009 39 27.0009H46C46.009 26.9997 46.018 26.9997 46.027 27.0009H46.033C46.0424 27.0038 46.0522 27.0058 46.062 27.0069C46.1502 27.0125 46.2373 27.0297 46.321 27.0579H46.336H46.351H46.363C46.3815 27.0708 46.3988 27.0852 46.415 27.1009C46.5239 27.1493 46.6232 27.2171 46.708 27.3009L52.708 33.3009C52.7918 33.3857 52.8596 33.4849 52.908 33.5939C52.917 33.6159 52.924 33.6369 52.931 33.6599V33.6739V33.6879C52.9589 33.7713 52.9754 33.8581 52.98 33.9459C52.9809 33.9558 52.9832 33.9656 52.987 33.9749V33.9809C52.9921 33.987 52.9964 33.9937 53 34.0009V45.0009C53 46.1054 52.1046 47.0009 51 47.0009ZM39 29.0009V45.0009H51V35.0009H46C45.4477 35.0009 45 34.5532 45 34.0009V29.0009H39ZM47 30.4149V33.0009H49.586L47 30.4149ZM46 43.0009H44V41.0009H42V39.0009H44V37.0009H46V39.0009H48V41.0009H46V43.0009Z" fill="black"/><path d="M21 47.0009H9C7.89543 47.0009 7 46.1054 7 45.0009V29.0009C7 27.8963 7.89543 27.0009 9 27.0009H16C16.009 26.9997 16.018 26.9997 16.027 27.0009H16.033C16.0424 27.0038 16.0522 27.0058 16.062 27.0069C16.1502 27.0125 16.2373 27.0297 16.321 27.0579H16.336H16.351H16.363C16.3815 27.0708 16.3988 27.0852 16.415 27.1009C16.5239 27.1493 16.6232 27.2171 16.708 27.3009L22.708 33.3009C22.7918 33.3857 22.8596 33.4849 22.908 33.5939C22.917 33.6159 22.924 33.6369 22.931 33.6599V33.6739V33.6879C22.9589 33.7713 22.9754 33.8581 22.98 33.9459C22.9809 33.9558 22.9832 33.9656 22.987 33.9749V33.9809C22.9921 33.987 22.9964 33.9937 23 34.0009V45.0009C23 46.1054 22.1046 47.0009 21 47.0009ZM9 29.0009V45.0009H21V35.0009H16C15.4477 35.0009 15 34.5532 15 34.0009V29.0009H9ZM17 30.4149V33.0009H19.586L17 30.4149ZM16 43.0009H14V41.0009H12V39.0009H14V37.0009H16V39.0009H18V41.0009H16V43.0009Z" fill="#7E7E7E"/><path d="M52.0038 20.0001H39.0038C35.8782 20.002 33.2747 17.604 33.0202 14.4887C32.7657 11.3735 34.9453 8.58465 38.0298 8.07911C39.4495 5.562 42.1139 4.00363 45.0038 4.00006C46.8058 3.99325 48.5563 4.60141 49.9658 5.72411C51.3499 6.82197 52.3339 8.34509 52.7658 10.0581C55.3497 10.4551 57.1916 12.7756 56.9918 15.3822C56.7921 17.9888 54.6181 20.0015 52.0038 20.0001ZM45.0038 6.0001C42.8355 6.00267 40.8365 7.17221 39.7718 9.06111L39.3038 9.90011L38.3548 10.0551C36.3051 10.3985 34.8598 12.2544 35.029 14.3258C35.1982 16.3972 36.9255 17.9939 39.0038 18.0001H52.0038C53.5724 18.0017 54.8774 16.7947 54.998 15.2308C55.1186 13.6668 54.0141 12.274 52.4638 12.0351L51.1478 11.8351L50.8258 10.5431C50.1611 7.86992 47.7584 5.99507 45.0038 6.0001ZM45.0038 16.0001L41.0038 12.0001H43.5538V9.00011H46.4538V12.0001H49.0038L45.0038 16.0001Z" fill="black"/><path d="M22.0038 20.0001H9.00382C5.87819 20.002 3.27472 17.604 3.02018 14.4887C2.76565 11.3735 4.94535 8.58465 8.02982 8.07911C9.44953 5.562 12.1139 4.00363 15.0038 4.00006C16.8058 3.99325 18.5563 4.60141 19.9658 5.72411C21.3499 6.82197 22.3339 8.34509 22.7658 10.0581C25.3497 10.4551 27.1916 12.7756 26.9918 15.3822C26.7921 17.9888 24.6181 20.0015 22.0038 20.0001ZM15.0038 6.0001C12.8355 6.00267 10.8365 7.17221 9.77182 9.06111L9.30382 9.90011L8.35482 10.0551C6.3051 10.3985 4.85983 12.2544 5.02904 14.3258C5.19824 16.3972 6.92555 17.9939 9.00382 18.0001H22.0038C23.5724 18.0017 24.8774 16.7947 24.998 15.2308C25.1186 13.6668 24.0141 12.274 22.4638 12.0351L21.1478 11.8351L20.8258 10.5431C20.1611 7.86992 17.7584 5.99507 15.0038 6.0001ZM15.0038 16.0001L11.0038 12.0001H13.5538V9.00011H16.4538V12.0001H19.0038L15.0038 16.0001Z" fill="#7E7E7E"/></svg>